<svg width="38" height="15" viewBox="0 0 38 15" fill="none" xmlns="http://www.w3.org/2000/svg">
<path d="M35.0529 14.2346C34.6265 14.2346 34.2754 14.1678 33.9995 14.034C33.7236 13.8919 33.5063 13.7372 33.3474 13.57C33.1969 13.4028 33.0924 13.2732 33.0339 13.1813H32.9461V14.1092H31.2783V4.57881H32.9461V8.39099H33.0339C33.0924 8.29067 33.1969 8.15691 33.3474 7.9897C33.5063 7.8225 33.7236 7.67202 33.9995 7.53826C34.2754 7.4045 34.6265 7.33762 35.0529 7.33762C35.5545 7.33762 35.9892 7.43794 36.357 7.63858C36.7249 7.83086 37.03 8.09421 37.2725 8.42861C37.5149 8.75465 37.6946 9.12249 37.8117 9.53213C37.9371 9.94177 37.9998 10.3598 37.9998 10.7861C37.9998 11.2125 37.9371 11.6305 37.8117 12.0401C37.6946 12.4498 37.5149 12.8218 37.2725 13.1562C37.03 13.4822 36.7249 13.7456 36.357 13.9462C35.9892 14.1385 35.5545 14.2346 35.0529 14.2346ZM34.614 12.8678C34.9985 12.8678 35.3162 12.7675 35.567 12.5668C35.8178 12.3578 36.0059 12.0945 36.1313 11.7768C36.2567 11.4591 36.3194 11.1289 36.3194 10.7861C36.3194 10.4434 36.2567 10.1132 36.1313 9.79547C36.0059 9.47779 35.8178 9.21863 35.567 9.01799C35.3162 8.80899 34.9985 8.70449 34.614 8.70449C34.2378 8.70449 33.9243 8.80899 33.6735 9.01799C33.4227 9.21863 33.2346 9.47779 33.1092 9.79547C32.9838 10.1132 32.9211 10.4434 32.9211 10.7861C32.9211 11.1289 32.9838 11.4591 33.1092 11.7768C33.2346 12.0945 33.4227 12.3578 33.6735 12.5668C33.9243 12.7675 34.2378 12.8678 34.614 12.8678Z" fill="#6C35DB"/>
<path d="M25.9739 14.2347C25.28 14.2347 24.7534 14.0215 24.3939 13.5951C24.0427 13.1687 23.8672 12.6212 23.8672 11.9524V7.46303H25.5225V11.6765C25.5225 12.036 25.6186 12.3244 25.8109 12.5417C26.0032 12.7507 26.2749 12.8552 26.626 12.8552C26.9353 12.8552 27.1861 12.7758 27.3784 12.617C27.5707 12.4581 27.7086 12.2533 27.7922 12.0025C27.8842 11.7517 27.9302 11.4926 27.9302 11.225V7.46303H29.598V14.1093H27.9302V13.1562H27.8549C27.7713 13.3067 27.6501 13.4655 27.4913 13.6327C27.3408 13.7999 27.1401 13.9421 26.8893 14.0591C26.6469 14.1761 26.3418 14.2347 25.9739 14.2347Z" fill="#6C35DB"/>
<path d="M14.9053 14.1093V4.82962H16.6107V8.64179H20.4856V4.82962H22.191V14.1093H20.4856V10.1215H16.6107V14.1093H14.9053Z" fill="#6C35DB"/>
<path d="M0.910156 14.1093L5.52907 0.705338H8.73514L13.3722 14.1093H10.8001L9.84006 11.2836H4.44227L3.48226 14.1093H0.910156ZM5.14869 9.14618H9.13364L7.14117 3.2231L5.14869 9.14618Z" fill="white"/>
</svg>
