<svg width="139" height="21" viewBox="0 0 139 21" fill="none" xmlns="http://www.w3.org/2000/svg">
<path d="M0.91 20L7.54 0.76H12.142L18.798 20H15.106L13.728 15.944H5.98L4.602 20H0.91ZM6.994 12.876H12.714L9.854 4.374L6.994 12.876ZM21.3151 20V6.22H24.7471V8.118H24.8771C25.1198 7.58067 25.5185 7.08667 26.0731 6.636C26.6278 6.18533 27.4598 5.96 28.5691 5.96C28.9158 5.96 29.2018 5.986 29.4271 6.038C29.6525 6.07267 29.7651 6.09 29.7651 6.09V9.444C29.7651 9.444 29.6351 9.42667 29.3751 9.392C29.1325 9.35733 28.8291 9.34 28.4651 9.34C27.2518 9.34 26.3331 9.678 25.7091 10.354C25.0851 11.03 24.7731 12.122 24.7731 13.63V20H21.3151ZM38.4471 20.26C37.5111 20.26 36.7398 20.1213 36.1331 19.844C35.5264 19.5667 35.0498 19.2027 34.7031 18.752C34.3738 18.3013 34.1398 17.8073 34.0011 17.27C33.8624 16.7327 33.7931 16.204 33.7931 15.684V9.002H31.4271V6.22H33.7931V2.788H37.2511V6.22H40.3451V9.002H37.2511V15.606C37.2511 16.8367 37.9444 17.452 39.3311 17.452C39.6604 17.452 39.9638 17.4347 40.2411 17.4C40.5358 17.348 40.6831 17.322 40.6831 17.322V20.026C40.6831 20.026 40.4578 20.0607 40.0071 20.13C39.5738 20.2167 39.0538 20.26 38.4471 20.26ZM45.5865 4.088C44.9799 4.088 44.4772 3.88867 44.0785 3.49C43.6972 3.09133 43.5065 2.61467 43.5065 2.06C43.5065 1.50533 43.6972 1.02867 44.0785 0.629998C44.4772 0.231333 44.9799 0.0319998 45.5865 0.0319998C46.1932 0.0319998 46.6959 0.231333 47.0945 0.629998C47.4932 1.02867 47.6925 1.50533 47.6925 2.06C47.6925 2.61467 47.4932 3.09133 47.0945 3.49C46.6959 3.88867 46.1932 4.088 45.5865 4.088ZM43.8705 20V6.22H47.3285V20H43.8705ZM57.7586 20.26C56.5799 20.26 55.5486 20.0607 54.6646 19.662C53.7806 19.246 53.0439 18.7 52.4546 18.024C51.8653 17.3307 51.4233 16.5593 51.1286 15.71C50.8513 14.8607 50.7126 13.994 50.7126 13.11C50.7126 12.226 50.8513 11.3593 51.1286 10.51C51.4233 9.66067 51.8566 8.898 52.4286 8.222C53.0179 7.52867 53.7546 6.98267 54.6386 6.584C55.5226 6.168 56.5626 5.96 57.7586 5.96C58.9373 5.96 59.9166 6.13333 60.6966 6.48C61.4766 6.82667 62.0919 7.26 62.5426 7.78C63.0106 8.3 63.3573 8.82 63.5826 9.34C63.8079 9.84267 63.9553 10.2673 64.0246 10.614C64.0939 10.9607 64.1286 11.134 64.1286 11.134H60.8786C60.8786 11.134 60.8439 11.0213 60.7746 10.796C60.7053 10.5533 60.5666 10.276 60.3586 9.964C60.1506 9.652 59.8386 9.37467 59.4226 9.132C59.0239 8.88933 58.4866 8.768 57.8106 8.768C57.0133 8.768 56.3373 8.976 55.7826 9.392C55.2453 9.79067 54.8379 10.3193 54.5606 10.978C54.2833 11.6367 54.1446 12.3473 54.1446 13.11C54.1446 13.8727 54.2833 14.5833 54.5606 15.242C54.8379 15.9007 55.2453 16.438 55.7826 16.854C56.3373 17.2527 57.0133 17.452 57.8106 17.452C58.4866 17.452 59.0239 17.3307 59.4226 17.088C59.8386 16.8453 60.1506 16.568 60.3586 16.256C60.5666 15.944 60.7053 15.6753 60.7746 15.45C60.8439 15.2073 60.8786 15.086 60.8786 15.086H64.1286C64.1286 15.086 64.0939 15.2593 64.0246 15.606C63.9553 15.9527 63.8079 16.386 63.5826 16.906C63.3573 17.4087 63.0106 17.92 62.5426 18.44C62.0919 18.96 61.4766 19.3933 60.6966 19.74C59.9166 20.0867 58.9373 20.26 57.7586 20.26ZM67.4052 20L67.4312 0.239999H70.8632V20H67.4052ZM80.9106 20.26C79.7319 20.26 78.7092 20.0607 77.8426 19.662C76.9932 19.246 76.2826 18.7 75.7106 18.024C75.1559 17.3307 74.7399 16.5593 74.4626 15.71C74.1852 14.8607 74.0466 13.994 74.0466 13.11C74.0466 12.226 74.1766 11.368 74.4366 10.536C74.7139 9.68667 75.1212 8.91533 75.6586 8.222C76.2132 7.52867 76.9152 6.98267 77.7646 6.584C78.6139 6.168 79.6192 5.96 80.7806 5.96C82.0286 5.96 83.1292 6.23733 84.0826 6.792C85.0359 7.34667 85.7812 8.16133 86.3186 9.236C86.8559 10.2933 87.1246 11.6107 87.1246 13.188V14.072H77.5306C77.5826 15.008 77.9032 15.8227 78.4926 16.516C79.0819 17.192 79.8879 17.53 80.9106 17.53C81.4999 17.53 81.9852 17.4347 82.3666 17.244C82.7479 17.0533 83.0426 16.8367 83.2506 16.594C83.4586 16.334 83.6059 16.1173 83.6926 15.944C83.7792 15.7533 83.8226 15.658 83.8226 15.658H87.0206C87.0206 15.658 86.9772 15.814 86.8906 16.126C86.8039 16.4207 86.6392 16.802 86.3966 17.27C86.1712 17.7207 85.8332 18.18 85.3826 18.648C84.9319 19.0987 84.3426 19.48 83.6146 19.792C82.8866 20.104 81.9852 20.26 80.9106 20.26ZM77.5306 11.81H83.7966C83.7446 10.7353 83.4239 9.938 82.8346 9.418C82.2452 8.898 81.5519 8.638 80.7546 8.638C79.8706 8.638 79.1339 8.924 78.5446 9.496C77.9552 10.0507 77.6172 10.822 77.5306 11.81Z" fill="white"/>
<path d="M90.3075 20V0.76H93.8435V8.664H101.878V0.76H105.414V20H101.878V11.732H93.8435V20H90.3075ZM113.255 20.26C111.817 20.26 110.725 19.818 109.979 18.934C109.251 18.05 108.887 16.9147 108.887 15.528V6.22H112.319V14.956C112.319 15.7013 112.519 16.2993 112.917 16.75C113.316 17.1833 113.879 17.4 114.607 17.4C115.249 17.4 115.769 17.2353 116.167 16.906C116.566 16.5767 116.852 16.152 117.025 15.632C117.216 15.112 117.311 14.5747 117.311 14.02V6.22H120.769V20H117.311V18.024H117.155C116.982 18.336 116.731 18.6653 116.401 19.012C116.089 19.3587 115.673 19.6533 115.153 19.896C114.651 20.1387 114.018 20.26 113.255 20.26ZM132.081 20.26C131.197 20.26 130.469 20.1213 129.897 19.844C129.325 19.5493 128.874 19.2287 128.545 18.882C128.233 18.5353 128.016 18.2667 127.895 18.076H127.713V20H124.255V0.239999H127.713V8.144H127.895C128.016 7.936 128.233 7.65867 128.545 7.312C128.874 6.96533 129.325 6.65333 129.897 6.376C130.469 6.09867 131.197 5.96 132.081 5.96C133.121 5.96 134.022 6.168 134.785 6.584C135.547 6.98267 136.18 7.52867 136.683 8.222C137.185 8.898 137.558 9.66067 137.801 10.51C138.061 11.3593 138.191 12.226 138.191 13.11C138.191 13.994 138.061 14.8607 137.801 15.71C137.558 16.5593 137.185 17.3307 136.683 18.024C136.18 18.7 135.547 19.246 134.785 19.662C134.022 20.0607 133.121 20.26 132.081 20.26ZM131.171 17.426C131.968 17.426 132.627 17.218 133.147 16.802C133.667 16.3687 134.057 15.8227 134.317 15.164C134.577 14.5053 134.707 13.8207 134.707 13.11C134.707 12.3993 134.577 11.7147 134.317 11.056C134.057 10.3973 133.667 9.86 133.147 9.444C132.627 9.01067 131.968 8.794 131.171 8.794C130.391 8.794 129.741 9.01067 129.221 9.444C128.701 9.86 128.311 10.3973 128.051 11.056C127.791 11.7147 127.661 12.3993 127.661 13.11C127.661 13.8207 127.791 14.5053 128.051 15.164C128.311 15.8227 128.701 16.3687 129.221 16.802C129.741 17.218 130.391 17.426 131.171 17.426Z" fill="#6C35DB"/>
</svg>
